<svg version="1.1" xmlns="http://www.w3.org/2000/svg" viewBox="0 0 1360 678.8999999999996" width="2720" height="1357.7999999999993">
  <!-- svg-source:excalidraw -->
  
  <defs>
    <style class="style-fonts">
      @font-face {
        font-family: "Virgil";
        src: url("https://excalidraw.com/Virgil.woff2");
      }
      @font-face {
        font-family: "Cascadia";
        src: url("https://excalidraw.com/Cascadia.woff2");
      }
    </style>
    
  </defs>
  <g transform="translate(121.82413465718014 221.9476744186045) rotate(0 123.93333435058594 63.515116279069844)"><text x="0" y="0" font-family="Cascadia, Segoe UI Emoji" font-size="105.85852713178295px" fill="#1e1e1e" text-anchor="start" style="white-space: pre;" direction="ltr" dominant-baseline="text-before-edge">&lt;h1&gt;</text></g><g transform="translate(959.0697674418604 212.5) rotate(0 162.5833282470703 66.64011627906984)"><text x="0" y="0" font-family="Cascadia, Segoe UI Emoji" font-size="111.06686046511629px" fill="#1e1e1e" text-anchor="start" style="white-space: pre;" direction="ltr" dominant-baseline="text-before-edge">&lt;/h1&gt;</text></g><g transform="translate(379.89872879452105 247.5) rotate(0 281.0416564941406 30.34999999999991)"><text x="0" y="0" font-family="Cascadia, Segoe UI Emoji" font-size="50.583333333333364px" fill="#1e1e1e" text-anchor="start" style="white-space: pre;" direction="ltr" dominant-baseline="text-before-edge">Welcome to CPIT-405</text></g><g stroke-linecap="round" transform="translate(10 10) rotate(0 670 258.75)"><path d="M-0.14 0.22 C280.12 0.53, 560.51 0.89, 1339.77 0.71 M-0.27 0.29 C412.24 -5.14, 823.96 -4.94, 1340.36 -0.24 M1340.63 0.16 C1339.29 107.45, 1339.1 216.57, 1340.41 517.73 M1340.02 0.37 C1341.12 107.32, 1341.72 214.84, 1340.38 517.75 M1340.61 516.82 C930.24 519.34, 520.7 520.14, 0.48 517.93 M1339.99 517.69 C905.41 513.41, 471.22 513.05, -0.02 517.59 M0.49 517.81 C1.18 313.82, 2.26 108.85, -0.31 0.76 M-0.2 517.48 C1.33 410.38, 1.64 303.24, -0.23 -0.09" stroke="#e03131" stroke-width="4" fill="none"></path></g><g transform="translate(336.25 557.5) rotate(0 322.5833435058594 55.69999999999982)"><text x="0" y="0" font-family="Helvetica, Segoe UI Emoji" font-size="96.86956521739117px" fill="#e03131" text-anchor="start" style="white-space: pre;" direction="ltr" dominant-baseline="text-before-edge">HTML Element</text></g><g transform="translate(77.54831010016869 40) rotate(0 148.1750030517578 30.075000000000045)"><text x="0" y="0" font-family="Helvetica, Segoe UI Emoji" font-size="52.304347826086925px" fill="#e03131" text-anchor="start" style="white-space: pre;" direction="ltr" dominant-baseline="text-before-edge">Opening Tag</text></g><g transform="translate(965.3804318340506 37.5) rotate(0 139.75833129882812 30.700000000000045)"><text x="0" y="0" font-family="Helvetica, Segoe UI Emoji" font-size="53.39130434782605px" fill="#e03131" text-anchor="start" style="white-space: pre;" direction="ltr" dominant-baseline="text-before-edge">Closing Tag</text></g><g transform="translate(552.5 421.25) rotate(0 95.45833587646484 31.325000000000045)"><text x="0" y="0" font-family="Helvetica, Segoe UI Emoji" font-size="54.47826086956544px" fill="#e03131" text-anchor="start" style="white-space: pre;" direction="ltr" dominant-baseline="text-before-edge">Content</text></g><g stroke-linecap="round"><g transform="translate(135 181.25) rotate(0 94.07973382622004 -0.08433366615440718)"><path d="M-1.18 1.76 C38.99 -2.42, 76.15 -2.82, 189.34 -0.6 M-0.8 0.3 C50.47 -1.66, 99.5 -1.57, 188.32 -0.6" stroke="#e03131" stroke-width="4" fill="none"></path></g></g><mask></mask><g stroke-linecap="round"><g transform="translate(322.5 180) rotate(0 1.5372156612575054 22.460882805287838)"><path d="M1.5 -1.44 C2.86 17.3, 2.3 30.62, 2.32 46.36 M-0.12 -0.88 C1.42 9.95, 1.69 19.75, 3.2 45.51" stroke="#e03131" stroke-width="4" fill="none"></path></g></g><mask></mask><g stroke-linecap="round"><g transform="translate(132.5 182.5) rotate(0 0.01965085230767727 22.45834095403552)"><path d="M-1.65 0.81 C-1.39 15.27, 1.97 31.53, 1.41 44.46 M-0.6 0.35 C1.15 9.82, 0.06 19.44, 1.69 44.57" stroke="#e03131" stroke-width="4" fill="none"></path></g></g><mask></mask><g stroke-linecap="round"><g transform="translate(223.75 181.25) rotate(0 1.2180579997079235 -33.95880242623389)"><path d="M1.74 1.59 C0.54 -18.04, 1.06 -38.31, 1.67 -67.35 M0.65 0.48 C-0.39 -22.66, 1.4 -43.64, 2.11 -69.51" stroke="#e03131" stroke-width="4" fill="none"></path></g></g><mask></mask><g stroke-linecap="round"><g transform="translate(1007.5 178.75) rotate(0 95.32887714542449 -0.663800544200285)"><path d="M0.79 -1.51 C67.47 -1.87, 133.22 0.96, 190.61 0.02 M0.04 -0.07 C47.12 0.67, 92.99 -0.58, 189.4 -1.22" stroke="#e03131" stroke-width="4" fill="none"></path></g></g><mask></mask><g stroke-linecap="round"><g transform="translate(1195.0000000000002 177.5) rotate(0 1.7576924785971642 22.2701942268759)"><path d="M-1.51 -0.08 C-1.05 9.04, 3.14 23.73, 5.02 43.98 M-0.07 0.15 C1.37 12.36, 1.54 27.27, 3.78 44.62" stroke="#e03131" stroke-width="4" fill="none"></path></g></g><mask></mask><g stroke-linecap="round"><g transform="translate(1005 180) rotate(0 0.3628483466346779 21.545525526627898)"><path d="M-0.08 -1.86 C-1.35 13.91, 2.74 26.24, 0.23 44.92 M0.15 0.4 C-0.59 11.58, 1.35 24.26, 0.87 44.95" stroke="#e03131" stroke-width="4" fill="none"></path></g></g><mask></mask><g stroke-linecap="round"><g transform="translate(1096.2500000000002 178.75) rotate(0 0.4996835801468933 -35.3451495654881)"><path d="M-1.86 -1.88 C2.79 -21.48, 3.49 -47.72, 2.42 -69.37 M0.4 -0.95 C0.27 -20.28, 1.6 -42.24, 2.45 -69.74" stroke="#e03131" stroke-width="4" fill="none"></path></g></g><mask></mask><g stroke-linecap="round"><g transform="translate(381.25 301.25) rotate(0 -1.4556723536479694 30.72446770593524)"><path d="M-1.61 0.74 C0.62 20.38, -1.98 36.75, -2.74 61.49 M-0.24 -0.93 C-0.06 19.46, -0.12 40.96, -1.4 62.38" stroke="#e03131" stroke-width="4" fill="none"></path></g></g><mask></mask><g stroke-linecap="round"><g transform="translate(376.25 362.5) rotate(0 281.64629131779066 0.5374411560594581)"><path d="M0.22 -0.5 C160.65 0.09, 320.29 -0.11, 563.26 0.96 M0.03 -0.15 C117.11 0.52, 234.76 1.13, 562.39 1.57" stroke="#e03131" stroke-width="4" fill="none"></path></g></g><mask></mask><g stroke-linecap="round"><g transform="translate(937.5 362.5) rotate(0 -0.828654695302248 -32.83936224132776)"><path d="M0.32 -0.1 C-0.64 -17.03, -0.97 -36.6, -1.85 -65.58 M0.41 -0.13 C-0.67 -15.13, -0.43 -29.22, -2.07 -64.1" stroke="#e03131" stroke-width="4" fill="none"></path></g></g><mask></mask><g stroke-linecap="round"><g transform="translate(638.75 365) rotate(0 0.7957981172949076 22.470919942483306)"><path d="M1.5 1.54 C1.63 16.8, 0.37 33.72, 2.44 44.98 M-0.85 -0.04 C0.36 16.64, 0.65 35, 2.1 43.02" stroke="#e03131" stroke-width="4" fill="none"></path></g></g><mask></mask></svg>